<?xml version="1.0" encoding="UTF-8" standalone="no"?>
<!-- Created with Inkscape (http://www.inkscape.org/) -->
<svg
   xmlns:dc="http://purl.org/dc/elements/1.1/"
   xmlns:cc="http://creativecommons.org/ns#"
   xmlns:rdf="http://www.w3.org/1999/02/22-rdf-syntax-ns#"
   xmlns:svg="http://www.w3.org/2000/svg"
   xmlns="http://www.w3.org/2000/svg"
   xmlns:sodipodi="http://sodipodi.sourceforge.net/DTD/sodipodi-0.dtd"
   xmlns:inkscape="http://www.inkscape.org/namespaces/inkscape"
   width="744.09448819"
   height="1052.3622047"
   id="svg5985"
   sodipodi:version="0.32"
   inkscape:version="0.46"
   sodipodi:docname="Psychocity.svg"
   inkscape:output_extension="org.inkscape.output.svg.inkscape"
   inkscape:export-filename="C:\Users\Администратор\Desktop\Psychocity.png"
   inkscape:export-xdpi="126.86"
   inkscape:export-ydpi="126.86">
  <sodipodi:namedview
     id="base"
     pagecolor="#ffffff"
     bordercolor="#666666"
     borderopacity="1.0"
     gridtolerance="10000"
     guidetolerance="10"
     objecttolerance="10"
     inkscape:pageopacity="0.0"
     inkscape:pageshadow="2"
     inkscape:zoom="0.49497475"
     inkscape:cx="353.24982"
     inkscape:cy="559.0641"
     inkscape:document-units="px"
     inkscape:current-layer="layer1"
     showgrid="false"
     inkscape:window-width="1280"
     inkscape:window-height="972"
     inkscape:window-x="-8"
     inkscape:window-y="-8"
     showguides="true"
     inkscape:guide-bbox="true" />
  <defs
     id="defs5987">
    <inkscape:perspective
       id="perspective5993"
       inkscape:persp3d-origin="372.04724 : 350.78739 : 1"
       inkscape:vp_z="744.09448 : 526.18109 : 1"
       inkscape:vp_y="0 : 1000 : 0"
       inkscape:vp_x="0 : 526.18109 : 1"
       sodipodi:type="inkscape:persp3d" />
    <inkscape:perspective
       sodipodi:type="inkscape:persp3d"
       inkscape:vp_x="0 : 526.18109 : 1"
       inkscape:vp_y="0 : 1000 : 0"
       inkscape:vp_z="744.09448 : 526.18109 : 1"
       inkscape:persp3d-origin="372.04724 : 350.78739 : 1"
       id="perspective6002" />
  </defs>
  <metadata
     id="metadata5990">
    <rdf:RDF>
      <cc:Work
         rdf:about="">
        <dc:format>image/svg+xml</dc:format>
        <dc:type
           rdf:resource="http://purl.org/dc/dcmitype/StillImage" />
      </cc:Work>
    </rdf:RDF>
  </metadata>
  <g
     id="layer1"
     inkscape:groupmode="layer"
     inkscape:label="Layer 1">
    <path
       style="fill:#ffffff;fill-opacity:1;fill-rule:evenodd;stroke:#000000;stroke-width:0.8395232px;stroke-linecap:butt;stroke-linejoin:miter;stroke-opacity:1"
       d="M 692.60174,52.963397 C 694.7521,56.721877 700.42396,58.247667 700.88674,54.424157 C 701.79904,52.764007 702.67425,51.330057 699.50775,49.896867 C 700.92554,45.490017 697.74164,46.424017 695.65203,47.397977 C 692.46659,48.213157 691.31639,50.877117 692.60174,52.963397 z"
       id="path6590"
       sodipodi:nodetypes="ccccc" />
    <path
       sodipodi:nodetypes="ccccccccccccccccc"
       id="path4387"
       d="M 15.457534,420.19117 L 74.028967,370.19117 L 74.028967,353.76257 L 116.88611,353.04827 L 127.6004,345.19117 L 276.8861,345.19117 L 276.8861,365.90547 L 395.45753,365.90547 L 395.45753,344.47687 L 499.74325,344.47687 L 538.31465,380.90547 L 616.88615,380.90547 L 639.74325,348.04827 L 639.74325,320.19117 L 707.60045,320.90547 L 707.60045,420.19117 L 15.457534,420.19117 z"
       style="fill:#8799a9;fill-opacity:1;fill-rule:evenodd;stroke:#000000;stroke-width:1px;stroke-linecap:butt;stroke-linejoin:miter;stroke-opacity:1" />
    <path
       sodipodi:nodetypes="ccccccccccccc"
       id="rect5159"
       d="M 38.126248,214.38406 L 143.38948,214.38406 L 221.14378,186.38406 L 309.74027,186.38406 L 397.74027,222.31386 L 528.44196,222.31386 L 528.44196,199.64716 L 602.42866,199.64716 L 602.42866,222.31386 L 687.21396,222.31386 L 687.21396,297.19107 L 38.126248,297.19107 L 38.126248,214.38406 z"
       style="fill:#8799a9;fill-opacity:1;stroke:#000000;stroke-width:1;stroke-linejoin:round;stroke-miterlimit:13.80000019;stroke-opacity:1" />
    <path
       sodipodi:nodetypes="cccccccccccccc"
       id="path6010"
       d="M 436.72069,788.31062 L 539.45125,788.31062 L 539.45125,714.93162 L 626.17195,714.93162 L 626.17195,651.58502 L 539.45125,651.58502 L 539.45125,616.20352 L 467.40645,616.20352 L 422.04489,564.17112 L 304.63848,564.17112 L 248.6036,613.53512 L 248.6036,717.59992 L 350.00005,717.59992 L 436.72069,788.31062 z"
       style="fill:#8799a9;fill-opacity:1;fill-rule:evenodd;stroke:#000000;stroke-width:1px;stroke-linecap:butt;stroke-linejoin:miter;stroke-opacity:1" />
    <path
       sodipodi:nodetypes="ccsssccc"
       id="path6019"
       d="M 683.12523,55.463777 C 682.84829,56.797977 682.53746,58.132077 683.12523,59.466277 C 684.73777,59.731777 687.14123,59.858077 688.75378,59.879977 C 688.97576,59.882977 689.32282,58.883377 689.5448,58.882577 C 689.84685,58.881377 690.02382,59.877377 690.32587,59.869477 C 692.02502,59.824877 692.80817,59.760377 694.50731,59.549677 C 694.90323,58.239777 694.70104,56.795077 694.42392,55.380377 L 683.12523,55.463777 z"
       style="fill:#d4d4d4;fill-opacity:1;fill-rule:evenodd;stroke:#000000;stroke-width:1px;stroke-linecap:round;stroke-linejoin:round;stroke-opacity:1" />
    <path
       sodipodi:nodetypes="ccccc"
       id="path6017"
       d="M 685.12771,40.787977 C 685.12771,40.787977 682.45814,43.206177 681.95783,56.047477 C 685.47549,58.181777 694.27379,57.032577 695.63176,55.713877 C 695.63176,55.713877 695.96655,45.791077 692.13083,40.787977 C 690.6184,39.812277 686.57804,40.263977 685.12771,40.787977 z"
       style="fill:#d4d4d4;fill-opacity:1;fill-rule:evenodd;stroke:#000000;stroke-width:1px;stroke-linecap:butt;stroke-linejoin:round;stroke-opacity:1" />
    <path
       sodipodi:nodetypes="cccsc"
       id="path6013"
       d="M 672.83692,18.449377 C 667.076,34.754637 687.26072,44.687457 692.95992,46.227857 C 701.10671,49.051267 707.39027,37.152207 709.38832,27.667857 C 712.0535,17.100357 705.98419,8.317037 696.38695,5.896557 C 686.78971,3.476077 675.25741,8.852107 672.83692,18.449377 z"
       style="fill:#d4d4d4;fill-opacity:1;stroke:#000000;stroke-width:1;stroke-linejoin:round;stroke-miterlimit:13.80000019;stroke-opacity:1" />
    <path
       sodipodi:nodetypes="ccccccccccccc"
       id="path6532"
       d="M 17.881638,843.33062 L 17.881638,825.31942 L 31.890358,811.31072 L 145.29428,811.31072 L 159.63654,825.65292 L 248.69197,825.65292 L 263.86808,840.82912 L 330.74304,840.82912 L 342.00005,852.08612 L 342.00005,864.67722 L 232.01492,864.67722 L 210.6683,843.33062 L 17.881638,843.33062 z"
       style="fill:#8799a9;fill-opacity:1;fill-rule:evenodd;stroke:#000000;stroke-width:1px;stroke-linecap:butt;stroke-linejoin:miter;stroke-opacity:1" />
    <g
       transform="matrix(0.8395232,0,0,0.8395232,602.227,-578.8392)"
       id="g6582">
      <path
         style="fill:#ffffff;fill-opacity:1;fill-rule:evenodd;stroke:#000000;stroke-width:1px;stroke-linecap:butt;stroke-linejoin:miter;stroke-opacity:1"
         d="M 91.556673,751.21948 C 94.118077,755.6964 100.87413,757.51385 101.42537,752.95946 C 102.51206,750.98198 103.55456,749.27392 99.782786,747.56677 C 101.47159,742.31755 97.679072,743.43008 95.190029,744.59021 C 91.395693,745.56122 90.025619,748.7344 91.556673,751.21948 z"
         id="path3654"
         sodipodi:nodetypes="ccccc" />
      <path
         style="fill:none;fill-rule:evenodd;stroke:#000000;stroke-width:1px;stroke-linecap:butt;stroke-linejoin:miter;stroke-opacity:1"
         d="M 98.704389,753.52198 L 95.607096,751.82133"
         id="path4373"
         sodipodi:nodetypes="cc" />
      <path
         sodipodi:nodetypes="cc"
         id="path6578"
         d="M 98.92536,751.4701 L 95.828067,749.76945"
         style="fill:none;fill-rule:evenodd;stroke:#000000;stroke-width:1px;stroke-linecap:butt;stroke-linejoin:miter;stroke-opacity:1" />
      <path
         style="fill:none;fill-rule:evenodd;stroke:#000000;stroke-width:1px;stroke-linecap:butt;stroke-linejoin:miter;stroke-opacity:1"
         d="M 100.92988,750.30211 L 97.832589,748.60146"
         id="path6580"
         sodipodi:nodetypes="cc" />
    </g>
    <path
       sodipodi:nodetypes="cccccccccc"
       id="path6602"
       d="M 224.68676,775.93756 L 224.68676,656.73956 L 160.03699,656.73956 L 160.03699,443.19127 L 96.397384,443.19127 L 96.397384,623.40453 L 59.303464,682.49845 L 19.884654,682.49845 L 19.884654,775.93756 L 224.68676,775.93756 z"
       style="fill:#8799a9;fill-opacity:1;fill-rule:evenodd;stroke:#000000;stroke-width:1px;stroke-linecap:butt;stroke-linejoin:miter;stroke-opacity:1" />
    <path
       sodipodi:nodetypes="cccccccccccc"
       id="path6604"
       d="M 435.17264,912.39105 L 475.15744,912.39105 L 534.85797,972.09158 L 659.10673,972.09158 L 692.21577,991.20709 L 731.83771,991.20709 L 731.83771,1038.7616 L 676.27932,1038.7616 L 359.17264,1038.7616 L 359.17264,951.08923 L 404.96825,949.89595 L 435.17264,912.39105 z"
       style="fill:#8799a9;fill-opacity:1;fill-rule:evenodd;stroke:#000000;stroke-width:1px;stroke-linecap:butt;stroke-linejoin:miter;stroke-opacity:1" />
    <g
       id="g9209"
       transform="translate(-42.857093,177.31163)">
      <path
         id="path6630"
         d="M 208.7934,783.43308 L 210.5474,783.29208 L 215.2224,784.05808 L 221.7204,786.77708 L 221.7204,791.33108 L 215.2224,794.05008 L 210.5474,794.81608 L 208.7934,794.67508 L 207.8704,801.69108 L 209.6004,802.00808 L 213.9174,803.95808 L 219.4914,808.26608 L 218.3124,812.66608 L 211.3314,813.61008 L 206.6174,813.14008 L 204.9604,812.55008 L 202.2524,819.08708 L 203.8414,819.84208 L 207.5074,822.84208 L 211.7754,828.44608 L 209.4984,832.39108 L 202.5114,831.49608 L 198.0794,829.82208 L 196.6314,828.82308 L 192.3234,834.43708 L 193.6634,835.57708 L 196.4274,839.42408 L 199.1004,845.94208 L 195.8794,849.16308 L 189.3614,846.49008 L 185.5144,843.72608 L 184.3744,842.38608 L 178.7604,846.69408 L 179.7594,848.14208 L 181.4334,852.57408 L 182.3284,859.56108 L 178.3834,861.83808 L 172.7794,857.57008 L 169.7794,853.90408 L 169.0244,852.31508 L 162.4874,855.02308 L 163.0774,856.68008 L 163.5474,861.39408 L 162.6034,868.37508 L 158.2034,869.55408 L 153.8954,863.98008 L 151.9454,859.66308 L 151.6284,857.93308 L 144.6124,858.85608 L 144.7534,860.61008 L 143.9874,865.28508 L 141.2684,871.78308 L 136.7144,871.78308 L 133.9954,865.28508 L 133.2294,860.61008 L 133.3704,858.85608 L 126.3544,857.93308 L 126.0374,859.66308 L 124.0874,863.98008 L 119.7794,869.55408 L 115.3794,868.37508 L 114.4354,861.39408 L 114.9054,856.68008 L 115.4954,855.02308 L 108.9584,852.31508 L 108.2034,853.90408 L 105.2034,857.57008 L 99.5994,861.83808 L 95.6544,859.56108 L 96.5494,852.57408 L 98.2234,848.14208 L 99.2224,846.69408 L 93.6084,842.38608 L 92.4684,843.72608 L 88.6214,846.49008 L 82.1034,849.16308 L 78.8824,845.94208 L 81.5554,839.42408 L 84.3194,835.57708 L 85.6594,834.43708 L 81.3514,828.82308 L 79.9034,829.82208 L 75.4714,831.49608 L 68.4844,832.39108 L 66.2074,828.44608 L 70.4754,822.84208 L 74.1414,819.84208 L 75.7304,819.08708 L 73.0224,812.55008 L 71.3654,813.14008 L 66.6514,813.61008 L 59.6704,812.66608 L 58.4914,808.26608 L 64.0654,803.95808 L 68.3824,802.00808 L 70.1124,801.69108 L 69.1894,794.67508 L 67.4354,794.81608 L 62.7604,794.05008 L 56.2624,791.33108 L 56.2624,786.77708 L 62.7604,784.05808 L 67.4354,783.29208 L 69.1894,783.43308 L 70.1124,776.41708 L 68.3824,776.10008 L 64.0654,774.15008 L 58.4914,769.84208 L 59.6704,765.44208 L 66.6514,764.49808 L 71.3654,764.96808 L 73.0224,765.55808 L 75.7304,759.02108 L 74.1414,758.26608 L 70.4754,755.26608 L 66.2074,749.66208 L 68.4844,745.71708 L 75.4714,746.61208 L 79.9034,748.28608 L 81.3514,749.28508 L 85.6594,743.67108 L 84.3194,742.53108 L 81.5554,738.68408 L 78.8824,732.16608 L 82.1034,728.94508 L 88.6214,731.61808 L 92.4684,734.38208 L 93.6084,735.72208 L 99.2224,731.41408 L 98.2234,729.96608 L 96.5494,725.53408 L 95.6544,718.54708 L 99.5994,716.27008 L 105.2034,720.53808 L 108.2034,724.20408 L 108.9584,725.79308 L 115.4954,723.08508 L 114.9054,721.42808 L 114.4354,716.71408 L 115.3794,709.73308 L 119.7794,708.55408 L 124.0874,714.12808 L 126.0374,718.44508 L 126.3544,720.17508 L 133.3704,719.25208 L 133.2294,717.49808 L 133.9954,712.82308 L 136.7144,706.32508 L 141.2684,706.32508 L 143.9874,712.82308 L 144.7534,717.49808 L 144.6124,719.25208 L 151.6284,720.17508 L 151.9454,718.44508 L 153.8954,714.12808 L 158.2034,708.55408 L 162.6034,709.73308 L 163.5474,716.71408 L 163.0774,721.42808 L 162.4874,723.08508 L 169.0244,725.79308 L 169.7794,724.20408 L 172.7794,720.53808 L 178.3834,716.27008 L 182.3284,718.54708 L 181.4334,725.53408 L 179.7594,729.96608 L 178.7604,731.41408 L 184.3744,735.72208 L 185.5144,734.38208 L 189.3614,731.61808 L 195.8794,728.94508 L 199.1004,732.16608 L 196.4274,738.68408 L 193.6634,742.53108 L 192.3234,743.67108 L 196.6314,749.28508 L 198.0794,748.28608 L 202.5114,746.61208 L 209.4984,745.71708 L 211.7754,749.66208 L 207.5074,755.26608 L 203.8414,758.26608 L 202.2524,759.02108 L 204.9604,765.55808 L 206.6174,764.96808 L 211.3314,764.49808 L 218.3124,765.44208 L 219.4914,769.84208 L 213.9174,774.15008 L 209.6004,776.10008 L 207.8704,776.41708 L 208.7934,783.43308 z"
         style="fill:#5e5e5e;fill-opacity:1;stroke:#000000" />
      <path
         transform="translate(2.620801,59.940735)"
         d="M 160.82379,729.11334 A 24.453203,24.453203 0 1 1 111.91739,729.11334 A 24.453203,24.453203 0 1 1 160.82379,729.11334 z"
         sodipodi:ry="24.453203"
         sodipodi:rx="24.453203"
         sodipodi:cy="729.11334"
         sodipodi:cx="136.37059"
         id="path9206"
         style="fill:#000000;fill-opacity:1;stroke:#000000;stroke-width:1;stroke-linejoin:round;stroke-miterlimit:13.80000019;stroke-dasharray:none;stroke-opacity:1"
         sodipodi:type="arc" />
    </g>
    <path
       sodipodi:nodetypes="ccccc"
       id="path9213"
       d="M 692.2446,121.7134 C 694.39496,125.47188 700.06682,126.99767 700.5296,123.17416 C 701.4419,121.51401 702.31711,120.08006 699.15061,118.64687 C 700.5684,114.24002 697.3845,115.17402 695.29489,116.14798 C 692.10945,116.96316 690.95925,119.62712 692.2446,121.7134 z"
       style="fill:#ffffff;fill-opacity:1;fill-rule:evenodd;stroke:#000000;stroke-width:0.8395232px;stroke-linecap:butt;stroke-linejoin:miter;stroke-opacity:1" />
    <path
       style="fill:#d4d4d4;fill-opacity:1;fill-rule:evenodd;stroke:#000000;stroke-width:1px;stroke-linecap:round;stroke-linejoin:round;stroke-opacity:1"
       d="M 721.33952,97.60663 C 721.06258,98.94083 720.75175,100.27493 721.33952,101.60913 C 722.95206,101.87463 725.35552,102.00093 726.96807,102.02283 C 727.19005,102.02583 727.53711,101.02623 727.75909,101.02543 C 728.06114,101.02423 728.23811,102.02023 728.54016,102.01233 C 730.23931,101.96773 731.02246,101.90323 732.7216,101.69253 C 733.11752,100.38263 732.91533,98.93793 732.63821,97.52323 L 721.33952,97.60663 z"
       id="path9215"
       sodipodi:nodetypes="ccsssccc" />
    <path
       style="fill:#d4d4d4;fill-opacity:1;fill-rule:evenodd;stroke:#000000;stroke-width:1px;stroke-linecap:butt;stroke-linejoin:round;stroke-opacity:1"
       d="M 713.87771,113.64511 C 713.87771,113.64511 711.20814,116.06331 710.70783,128.90461 C 714.22549,131.03891 723.02379,129.88971 724.38176,128.57101 C 724.38176,128.57101 724.71655,118.64821 720.88083,113.64511 C 719.3684,112.66941 715.32804,113.12111 713.87771,113.64511 z"
       id="path9217"
       sodipodi:nodetypes="ccccc" />
    <path
       style="fill:#d4d4d4;fill-opacity:1;stroke:#000000;stroke-width:1;stroke-linejoin:round;stroke-miterlimit:13.80000019;stroke-opacity:1"
       d="M 677.83692,78.449377 C 672.076,94.754637 692.26072,104.68746 697.95992,106.22786 C 706.10671,109.05127 712.39027,97.152207 714.38832,87.667857 C 717.0535,77.100357 710.98419,68.317037 701.38695,65.896557 C 691.78971,63.476077 680.25741,68.852107 677.83692,78.449377 z"
       id="path9219"
       sodipodi:nodetypes="cccsc" />
    <g
       id="g9221"
       transform="matrix(0.8395232,0,0,0.8395232,599.19128,-508.74992)">
      <path
         sodipodi:nodetypes="ccccc"
         id="path9223"
         d="M 91.556673,751.21948 C 94.118077,755.6964 100.87413,757.51385 101.42537,752.95946 C 102.51206,750.98198 103.55456,749.27392 99.782786,747.56677 C 101.47159,742.31755 97.679072,743.43008 95.190029,744.59021 C 91.395693,745.56122 90.025619,748.7344 91.556673,751.21948 z"
         style="fill:#ffffff;fill-opacity:1;fill-rule:evenodd;stroke:#000000;stroke-width:1px;stroke-linecap:butt;stroke-linejoin:miter;stroke-opacity:1" />
      <path
         sodipodi:nodetypes="cc"
         id="path9225"
         d="M 98.704389,753.52198 L 95.607096,751.82133"
         style="fill:none;fill-rule:evenodd;stroke:#000000;stroke-width:1px;stroke-linecap:butt;stroke-linejoin:miter;stroke-opacity:1" />
      <path
         style="fill:none;fill-rule:evenodd;stroke:#000000;stroke-width:1px;stroke-linecap:butt;stroke-linejoin:miter;stroke-opacity:1"
         d="M 98.92536,751.4701 L 95.828067,749.76945"
         id="path9227"
         sodipodi:nodetypes="cc" />
      <path
         sodipodi:nodetypes="cc"
         id="path9229"
         d="M 100.92988,750.30211 L 97.832589,748.60146"
         style="fill:none;fill-rule:evenodd;stroke:#000000;stroke-width:1px;stroke-linecap:butt;stroke-linejoin:miter;stroke-opacity:1" />
    </g>
  </g>
</svg>
